<svg xmlns="http://www.w3.org/2000/svg" viewBox="0 0 520 480" role="img" aria-label="Texas map showing SEO and social media management service areas: Houston, Dallas, Austin, and San Antonio">
  <title>Texas SEO and Social Media Management Services — Seovize serves Houston, Dallas, Austin, and San Antonio</title>
  <desc>Map of Texas highlighting the four major markets where Seovize provides SEO, semantic SEO, social media management, and local SEO services</desc>

  <!-- Texas outline (simplified) -->
  <path
    d="M 120,28 L 300,28 L 310,22 L 340,22 L 350,35 L 380,42 L 390,58 L 395,80 L 385,100 L 400,115 L 405,140 L 398,158 L 410,175 L 415,200 L 410,218 L 418,235 L 412,255 L 405,270 L 390,285 L 370,298 L 348,315 L 320,335 L 295,348 L 272,362 L 252,372 L 230,378 L 210,374 L 190,368 L 168,355 L 148,342 L 125,322 L 105,298 L 85,275 L 68,255 L 55,232 L 42,210 L 38,188 L 45,168 L 38,148 L 42,128 L 52,112 L 58,96 L 50,78 L 55,62 L 68,48 L 85,36 L 105,30 Z"
    fill="#F1F5F9"
    stroke="#E2E8F0"
    strokeWidth="2.5"
    strokeLinejoin="round"
  />

  <!-- Panhandle -->
  <path
    d="M 50,62 L 50,28 L 120,28 L 120,62"
    fill="#F1F5F9"
    stroke="#E2E8F0"
    strokeWidth="2.5"
    strokeLinejoin="round"
  />

  <!-- Service area rings (subtle) -->
  <circle cx="318" cy="235" r="45" fill="#14B8A6" fillOpacity=".06" stroke="#14B8A6" strokeWidth="1" strokeOpacity=".2" strokeDasharray="4 3"/>
  <circle cx="245" cy="175" r="40" fill="#14B8A6" fillOpacity=".06" stroke="#14B8A6" strokeWidth="1" strokeOpacity=".2" strokeDasharray="4 3"/>
  <circle cx="240" cy="265" r="38" fill="#F97316" fillOpacity=".06" stroke="#F97316" strokeWidth="1" strokeOpacity=".2" strokeDasharray="4 3"/>
  <circle cx="190" cy="230" r="35" fill="#38BDF8" fillOpacity=".06" stroke="#38BDF8" strokeWidth="1" strokeOpacity=".2" strokeDasharray="4 3"/>

  <!-- City: Dallas -->
  <circle cx="245" cy="175" r="10" fill="#14B8A6"/>
  <circle cx="245" cy="175" r="16" fill="none" stroke="#14B8A6" strokeWidth="1.5" strokeOpacity=".4"/>
  <text x="265" y="170" fontSize="13" fontWeight="700" fill="#0F172A" fontFamily="system-ui, sans-serif">Dallas</text>
  <text x="265" y="184" fontSize="10" fill="#475569" fontFamily="monospace">SEO Hub</text>

  <!-- City: Houston -->
  <circle cx="318" cy="290" r="12" fill="#F97316"/>
  <circle cx="318" cy="290" r="19" fill="none" stroke="#F97316" strokeWidth="1.5" strokeOpacity=".4"/>
  <text x="340" y="285" fontSize="13" fontWeight="700" fill="#0F172A" fontFamily="system-ui, sans-serif">Houston</text>
  <text x="340" y="299" fontSize="10" fill="#475569" fontFamily="monospace">Largest Market</text>

  <!-- City: Austin -->
  <circle cx="240" cy="290" r="9" fill="#14B8A6" fillOpacity=".8"/>
  <circle cx="240" cy="290" r="15" fill="none" stroke="#14B8A6" strokeWidth="1.5" strokeOpacity=".3"/>
  <text x="155" y="285" fontSize="13" fontWeight="700" fill="#0F172A" fontFamily="system-ui, sans-serif">Austin</text>
  <text x="162" y="299" fontSize="10" fill="#475569" fontFamily="monospace">Tech Hub</text>

  <!-- City: San Antonio -->
  <circle cx="210" cy="330" r="9" fill="#38BDF8"/>
  <circle cx="210" cy="330" r="15" fill="none" stroke="#38BDF8" strokeWidth="1.5" strokeOpacity=".3"/>
  <text x="125" y="325" fontSize="13" fontWeight="700" fill="#0F172A" fontFamily="system-ui, sans-serif">San Antonio</text>
  <text x="132" y="339" fontSize="10" fill="#475569" fontFamily="monospace">Local SEO</text>

  <!-- Legend -->
  <rect x="380" y="360" width="130" height="100" rx="10" fill="white" stroke="#E2E8F0" strokeWidth="1.5"/>
  <text x="392" y="378" fontSize="10" fontWeight="700" fill="#94A3B8" fontFamily="monospace" letterSpacing="0.1em">SEOVIZE SERVES</text>
  <circle cx="394" cy="395" r="5" fill="#14B8A6"/>
  <text x="404" y="399" fontSize="11" fill="#0F172A" fontFamily="system-ui, sans-serif">SEO Services</text>
  <circle cx="394" cy="415" r="5" fill="#F97316"/>
  <text x="404" y="419" fontSize="11" fill="#0F172A" fontFamily="system-ui, sans-serif">Social Media</text>
  <circle cx="394" cy="435" r="5" fill="#38BDF8"/>
  <text x="404" y="439" fontSize="11" fill="#0F172A" fontFamily="system-ui, sans-serif">Local SEO</text>

  <!-- Seovize brand mark -->
  <rect x="30" y="400" width="90" height="32" rx="8" fill="#14B8A6" fillOpacity=".1" stroke="#14B8A6" strokeWidth="1.5"/>
  <text x="75" y="414" textAnchor="middle" fontSize="10" fontWeight="700" fill="#14B8A6" fontFamily="monospace">SEOVIZE</text>
  <text x="75" y="426" textAnchor="middle" fontSize="9" fill="#475569" fontFamily="system-ui, sans-serif">Remote Studio · Texas</text>
</svg>
